<svg xmlns="http://www.w3.org/2000/svg" xmlns:xlink="http://www.w3.org/1999/xlink" width="600" zoomAndPan="magnify" viewBox="0 0 450 112.499997" height="150" preserveAspectRatio="xMidYMid meet" version="1.0"><defs><g/><clipPath id="4f8ac62f5e"><path d="M 181 0 L 275 0 L 275 112.003906 L 181 112.003906 Z M 181 0 " clip-rule="nonzero"/></clipPath><clipPath id="73a59aece3"><path d="M 1 17 L 70.417969 17 L 70.417969 83.3125 L 1 83.3125 Z M 1 17 " clip-rule="nonzero"/></clipPath><clipPath id="defbc9d936"><path d="M 18 0 L 54 0 L 54 32 L 18 32 Z M 18 0 " clip-rule="nonzero"/></clipPath><clipPath id="8694cc1fe8"><path d="M 6 47 L 83 47 L 83 92 L 6 92 Z M 6 47 " clip-rule="nonzero"/></clipPath><clipPath id="ae37d762e0"><path d="M 6.085938 47.628906 L 78.933594 35.390625 L 90.726562 105.597656 L 17.878906 117.835938 Z M 6.085938 47.628906 " clip-rule="nonzero"/></clipPath><clipPath id="0ed9068261"><path d="M 6.085938 47.628906 L 78.933594 35.390625 L 90.726562 105.597656 L 17.878906 117.835938 Z M 6.085938 47.628906 " clip-rule="nonzero"/></clipPath><clipPath id="b4ecd36b63"><path d="M 35 93 L 54 93 L 54 112 L 35 112 Z M 35 93 " clip-rule="nonzero"/></clipPath><clipPath id="b3c8296345"><path d="M 6.085938 47.628906 L 78.933594 35.390625 L 90.726562 105.597656 L 17.878906 117.835938 Z M 6.085938 47.628906 " clip-rule="nonzero"/></clipPath><clipPath id="d3c47faea2"><path d="M 6.085938 47.628906 L 78.933594 35.390625 L 90.726562 105.597656 L 17.878906 117.835938 Z M 6.085938 47.628906 " clip-rule="nonzero"/></clipPath><clipPath id="cfd0a7b52d"><path d="M 60 88 L 80 88 L 80 108 L 60 108 Z M 60 88 " clip-rule="nonzero"/></clipPath><clipPath id="ccd61fe48c"><path d="M 6.085938 47.628906 L 78.933594 35.390625 L 90.726562 105.597656 L 17.878906 117.835938 Z M 6.085938 47.628906 " clip-rule="nonzero"/></clipPath><clipPath id="6743df9295"><path d="M 6.085938 47.628906 L 78.933594 35.390625 L 90.726562 105.597656 L 17.878906 117.835938 Z M 6.085938 47.628906 " clip-rule="nonzero"/></clipPath><clipPath id="4291ba3e5a"><path d="M 74.480469 39.472656 L 91.5625 39.472656 L 91.5625 56.554688 L 74.480469 56.554688 Z M 74.480469 39.472656 " clip-rule="nonzero"/></clipPath><clipPath id="9dfc1aebac"><path d="M 83.019531 39.472656 C 78.304688 39.472656 74.480469 43.296875 74.480469 48.015625 C 74.480469 52.730469 78.304688 56.554688 83.019531 56.554688 C 87.738281 56.554688 91.5625 52.730469 91.5625 48.015625 C 91.5625 43.296875 87.738281 39.472656 83.019531 39.472656 Z M 83.019531 39.472656 " clip-rule="nonzero"/></clipPath><clipPath id="d2bf562c6b"><path d="M 0.480469 0.472656 L 17.5625 0.472656 L 17.5625 17.554688 L 0.480469 17.554688 Z M 0.480469 0.472656 " clip-rule="nonzero"/></clipPath><clipPath id="61af1f094f"><path d="M 9.019531 0.472656 C 4.304688 0.472656 0.480469 4.296875 0.480469 9.015625 C 0.480469 13.730469 4.304688 17.554688 9.019531 17.554688 C 13.738281 17.554688 17.5625 13.730469 17.5625 9.015625 C 17.5625 4.296875 13.738281 0.472656 9.019531 0.472656 Z M 9.019531 0.472656 " clip-rule="nonzero"/></clipPath><clipPath id="16fcea0ca4"><rect x="0" width="18" y="0" height="18"/></clipPath><clipPath id="065579fb5d"><path d="M 0.0390625 3 L 13 3 L 13 13 L 0.0390625 13 Z M 0.0390625 3 " clip-rule="nonzero"/></clipPath><clipPath id="fef25ab379"><rect x="0" width="56" y="0" height="16"/></clipPath><clipPath id="73606eef5b"><rect x="0" width="94" y="0" height="113"/></clipPath></defs><g clip-path="url(#4f8ac62f5e)"><g transform="matrix(1, 0, 0, 1, 181, 0)"><g clip-path="url(#73606eef5b)"><g clip-path="url(#73a59aece3)"><path fill="#053262" d="M 65.308594 83.378906 L 6.398438 83.378906 C 4.96875 83.378906 3.578125 82.785156 2.597656 81.742188 C 1.613281 80.703125 1.09375 79.289062 1.175781 77.855469 L 4.277344 22.039062 C 4.429688 19.265625 6.722656 17.09375 9.5 17.09375 L 62.207031 17.09375 C 64.984375 17.09375 67.277344 19.265625 67.429688 22.039062 L 70.53125 77.855469 C 70.609375 79.289062 70.089844 80.703125 69.109375 81.742188 C 68.125 82.785156 66.738281 83.378906 65.308594 83.378906 Z M 9.5 20.582031 C 8.574219 20.582031 7.808594 21.308594 7.757812 22.230469 L 4.65625 78.050781 C 4.632812 78.535156 4.800781 78.996094 5.132812 79.347656 C 5.464844 79.695312 5.914062 79.890625 6.398438 79.890625 L 65.308594 79.890625 C 65.792969 79.890625 66.242188 79.695312 66.574219 79.347656 C 66.90625 78.996094 67.078125 78.535156 67.050781 78.050781 L 63.949219 22.230469 C 63.898438 21.308594 63.132812 20.582031 62.207031 20.582031 Z M 9.5 20.582031 " fill-opacity="1" fill-rule="nonzero"/></g><g clip-path="url(#defbc9d936)"><path fill="#053262" d="M 51.550781 31.132812 C 50.589844 31.132812 49.808594 30.351562 49.808594 29.390625 L 49.808594 17.414062 C 49.808594 9.71875 43.550781 3.460938 35.851562 3.460938 C 28.15625 3.460938 21.898438 9.71875 21.898438 17.414062 L 21.898438 29.390625 C 21.898438 30.351562 21.117188 31.132812 20.152344 31.132812 C 19.191406 31.132812 18.410156 30.351562 18.410156 29.390625 L 18.410156 17.414062 C 18.410156 7.796875 26.234375 -0.0273438 35.851562 -0.0273438 C 45.472656 -0.0273438 53.296875 7.796875 53.296875 17.414062 L 53.296875 29.390625 C 53.296875 30.351562 52.515625 31.132812 51.550781 31.132812 Z M 51.550781 31.132812 " fill-opacity="1" fill-rule="nonzero"/></g><g clip-path="url(#8694cc1fe8)"><g clip-path="url(#ae37d762e0)"><g clip-path="url(#0ed9068261)"><path fill="#00bf63" d="M 73.898438 49.910156 L 31.089844 57.105469 C 30.789062 57.152344 30.507812 57.261719 30.25 57.421875 C 29.992188 57.582031 29.773438 57.789062 29.597656 58.039062 C 29.417969 58.285156 29.296875 58.558594 29.226562 58.855469 C 29.160156 59.152344 29.152344 59.453125 29.203125 59.753906 C 29.25 60.054688 29.359375 60.332031 29.519531 60.589844 C 29.679688 60.851562 29.886719 61.066406 30.136719 61.246094 C 30.382812 61.421875 30.65625 61.542969 30.953125 61.613281 C 31.25 61.679688 31.550781 61.691406 31.851562 61.640625 L 74.660156 54.449219 C 74.871094 54.414062 75.082031 54.402344 75.292969 54.421875 C 75.507812 54.441406 75.714844 54.484375 75.914062 54.558594 C 76.113281 54.628906 76.304688 54.722656 76.480469 54.84375 C 76.65625 54.964844 76.8125 55.105469 76.953125 55.265625 C 77.09375 55.425781 77.214844 55.597656 77.308594 55.789062 C 77.402344 55.980469 77.472656 56.179688 77.519531 56.386719 C 77.5625 56.597656 77.582031 56.808594 77.570312 57.019531 C 77.5625 57.234375 77.527344 57.441406 77.464844 57.644531 C 75.746094 63.28125 73.992188 75.507812 72.765625 79.511719 C 72.628906 79.964844 72.378906 80.347656 72.023438 80.660156 C 71.667969 80.972656 71.257812 81.164062 70.789062 81.242188 L 39.273438 86.539062 C 38.769531 86.625 38.28125 86.558594 37.816406 86.347656 C 37.351562 86.132812 36.984375 85.808594 36.71875 85.367188 C 36.714844 85.34375 24.28125 54.730469 24.28125 54.730469 C 24.03125 54.105469 23.726562 53.507812 23.375 52.9375 C 23.023438 52.367188 22.621094 51.828125 22.179688 51.324219 C 21.734375 50.820312 21.25 50.355469 20.726562 49.933594 C 20.203125 49.511719 19.648438 49.136719 19.0625 48.808594 C 18.476562 48.480469 17.867188 48.203125 17.234375 47.980469 C 16.601562 47.753906 15.953125 47.585938 15.292969 47.46875 C 14.628906 47.355469 13.960938 47.296875 13.289062 47.292969 C 12.617188 47.292969 11.953125 47.347656 11.289062 47.457031 L 8.472656 47.929688 C 8.164062 47.96875 7.875 48.066406 7.609375 48.226562 C 7.34375 48.382812 7.121094 48.589844 6.941406 48.839844 C 6.761719 49.09375 6.640625 49.371094 6.578125 49.675781 C 6.515625 49.980469 6.515625 50.28125 6.582031 50.585938 C 6.632812 50.886719 6.738281 51.164062 6.902344 51.425781 C 7.0625 51.683594 7.269531 51.898438 7.515625 52.078125 C 7.765625 52.253906 8.039062 52.375 8.335938 52.445312 C 8.632812 52.511719 8.929688 52.523438 9.230469 52.472656 L 12.050781 52 C 12.871094 51.863281 13.6875 51.863281 14.503906 52.003906 C 15.320312 52.144531 16.089844 52.417969 16.816406 52.824219 C 17.539062 53.226562 18.175781 53.738281 18.726562 54.359375 C 19.273438 54.980469 19.707031 55.675781 20.019531 56.445312 L 32.496094 87.191406 C 32.523438 87.261719 32.558594 87.335938 32.59375 87.40625 C 32.941406 88.0625 33.386719 88.652344 33.917969 89.167969 C 34.453125 89.6875 35.054688 90.113281 35.722656 90.441406 C 36.390625 90.769531 37.09375 90.988281 37.828125 91.097656 C 38.566406 91.207031 39.300781 91.199219 40.035156 91.074219 L 71.554688 85.78125 C 72.203125 85.671875 72.824219 85.476562 73.421875 85.191406 C 74.015625 84.910156 74.5625 84.550781 75.058594 84.117188 C 75.550781 83.679688 75.980469 83.1875 76.335938 82.632812 C 76.695312 82.082031 76.96875 81.488281 77.164062 80.859375 C 78.386719 76.855469 80.132812 64.632812 81.859375 58.988281 C 81.949219 58.703125 82.019531 58.410156 82.070312 58.113281 C 82.121094 57.816406 82.152344 57.515625 82.164062 57.214844 C 82.179688 56.914062 82.171875 56.613281 82.148438 56.3125 C 82.121094 56.015625 82.078125 55.714844 82.015625 55.421875 C 81.953125 55.128906 81.871094 54.839844 81.769531 54.554688 C 81.667969 54.269531 81.550781 53.992188 81.417969 53.722656 C 81.28125 53.453125 81.128906 53.195312 80.960938 52.945312 C 80.792969 52.695312 80.609375 52.457031 80.410156 52.230469 C 80.210938 52.003906 80 51.792969 79.773438 51.59375 C 79.546875 51.394531 79.3125 51.207031 79.0625 51.039062 C 78.8125 50.871094 78.554688 50.71875 78.285156 50.582031 C 78.015625 50.445312 77.742188 50.324219 77.457031 50.226562 C 77.171875 50.125 76.882812 50.042969 76.589844 49.976562 C 76.296875 49.914062 75.996094 49.867188 75.699219 49.839844 C 75.398438 49.816406 75.097656 49.808594 74.796875 49.820312 C 74.496094 49.832031 74.195312 49.863281 73.898438 49.910156 Z M 73.898438 49.910156 " fill-opacity="1" fill-rule="evenodd"/></g></g></g><g clip-path="url(#b4ecd36b63)"><g clip-path="url(#b3c8296345)"><g clip-path="url(#d3c47faea2)"><path fill="#00bf63" d="M 42.949219 93.320312 C 42.339844 93.421875 41.746094 93.582031 41.167969 93.800781 C 40.59375 94.019531 40.042969 94.292969 39.519531 94.621094 C 38.996094 94.949219 38.511719 95.324219 38.0625 95.746094 C 37.613281 96.167969 37.210938 96.632812 36.851562 97.136719 C 36.492188 97.636719 36.1875 98.171875 35.933594 98.734375 C 35.679688 99.296875 35.484375 99.878906 35.347656 100.480469 C 35.210938 101.082031 35.128906 101.691406 35.113281 102.304688 C 35.09375 102.921875 35.136719 103.535156 35.238281 104.144531 C 35.339844 104.753906 35.5 105.34375 35.71875 105.921875 C 35.9375 106.5 36.210938 107.050781 36.539062 107.570312 C 36.867188 108.09375 37.242188 108.582031 37.664062 109.03125 C 38.089844 109.480469 38.550781 109.882812 39.054688 110.242188 C 39.554688 110.597656 40.089844 110.902344 40.652344 111.15625 C 41.214844 111.410156 41.796875 111.605469 42.398438 111.742188 C 43 111.882812 43.609375 111.960938 44.226562 111.980469 C 44.84375 111.996094 45.453125 111.957031 46.0625 111.851562 C 46.671875 111.75 47.265625 111.589844 47.839844 111.371094 C 48.417969 111.152344 48.96875 110.878906 49.492188 110.550781 C 50.011719 110.222656 50.5 109.847656 50.949219 109.425781 C 51.398438 109.003906 51.800781 108.539062 52.160156 108.035156 C 52.515625 107.535156 52.824219 107 53.074219 106.4375 C 53.328125 105.875 53.523438 105.292969 53.660156 104.691406 C 53.800781 104.089844 53.878906 103.480469 53.898438 102.863281 C 53.914062 102.25 53.875 101.636719 53.769531 101.027344 C 53.667969 100.417969 53.507812 99.828125 53.289062 99.25 C 53.070312 98.675781 52.796875 98.125 52.46875 97.601562 C 52.140625 97.078125 51.765625 96.59375 51.34375 96.144531 C 50.917969 95.695312 50.457031 95.292969 49.953125 94.933594 C 49.453125 94.578125 48.917969 94.269531 48.355469 94.019531 C 47.792969 93.765625 47.210938 93.570312 46.609375 93.429688 C 46.011719 93.292969 45.402344 93.214844 44.785156 93.195312 C 44.167969 93.175781 43.554688 93.21875 42.949219 93.320312 Z M 45.300781 107.316406 C 44.988281 107.371094 44.675781 107.390625 44.359375 107.382812 C 44.046875 107.371094 43.734375 107.332031 43.429688 107.261719 C 43.121094 107.191406 42.824219 107.089844 42.539062 106.960938 C 42.25 106.832031 41.976562 106.675781 41.722656 106.492188 C 41.464844 106.3125 41.230469 106.105469 41.011719 105.875 C 40.796875 105.648438 40.605469 105.398438 40.4375 105.132812 C 40.269531 104.863281 40.132812 104.582031 40.019531 104.289062 C 39.910156 103.996094 39.828125 103.691406 39.773438 103.382812 C 39.722656 103.070312 39.699219 102.757812 39.710938 102.445312 C 39.71875 102.128906 39.757812 101.820312 39.828125 101.511719 C 39.898438 101.203125 40 100.90625 40.128906 100.621094 C 40.257812 100.332031 40.414062 100.0625 40.597656 99.804688 C 40.78125 99.546875 40.984375 99.3125 41.214844 99.097656 C 41.445312 98.878906 41.691406 98.6875 41.957031 98.519531 C 42.226562 98.355469 42.507812 98.214844 42.800781 98.101562 C 43.09375 97.992188 43.398438 97.910156 43.707031 97.855469 C 44.019531 97.804688 44.332031 97.78125 44.644531 97.792969 C 44.960938 97.800781 45.273438 97.839844 45.578125 97.910156 C 45.886719 97.980469 46.183594 98.082031 46.46875 98.210938 C 46.757812 98.339844 47.027344 98.496094 47.285156 98.679688 C 47.542969 98.859375 47.777344 99.066406 47.996094 99.296875 C 48.210938 99.523438 48.402344 99.773438 48.570312 100.039062 C 48.738281 100.308594 48.875 100.585938 48.988281 100.882812 C 49.101562 101.175781 49.183594 101.480469 49.234375 101.789062 C 49.285156 102.101562 49.308594 102.414062 49.296875 102.726562 C 49.289062 103.042969 49.25 103.351562 49.179688 103.660156 C 49.105469 103.96875 49.007812 104.265625 48.878906 104.550781 C 48.75 104.839844 48.59375 105.109375 48.410156 105.367188 C 48.226562 105.625 48.023438 105.859375 47.792969 106.078125 C 47.5625 106.292969 47.316406 106.484375 47.046875 106.652344 C 46.78125 106.820312 46.5 106.957031 46.207031 107.070312 C 45.914062 107.183594 45.609375 107.265625 45.300781 107.316406 Z M 45.300781 107.316406 " fill-opacity="1" fill-rule="evenodd"/></g></g></g><g clip-path="url(#cfd0a7b52d)"><g clip-path="url(#ccd61fe48c)"><g clip-path="url(#6743df9295)"><path fill="#00bf63" d="M 68.773438 88.980469 C 68.167969 89.082031 67.574219 89.242188 66.996094 89.464844 C 66.421875 89.683594 65.871094 89.957031 65.347656 90.28125 C 64.824219 90.609375 64.339844 90.984375 63.890625 91.40625 C 63.441406 91.832031 63.035156 92.292969 62.679688 92.796875 C 62.320312 93.300781 62.015625 93.832031 61.761719 94.394531 C 61.507812 94.957031 61.3125 95.539062 61.175781 96.140625 C 61.035156 96.742188 60.957031 97.351562 60.941406 97.96875 C 60.921875 98.585938 60.964844 99.195312 61.066406 99.804688 C 61.167969 100.414062 61.328125 101.007812 61.546875 101.582031 C 61.765625 102.160156 62.039062 102.710938 62.367188 103.234375 C 62.695312 103.757812 63.070312 104.242188 63.492188 104.691406 C 63.914062 105.140625 64.378906 105.542969 64.882812 105.902344 C 65.382812 106.261719 65.917969 106.566406 66.480469 106.816406 C 67.042969 107.070312 67.625 107.265625 68.226562 107.40625 C 68.828125 107.542969 69.4375 107.621094 70.050781 107.640625 C 70.667969 107.660156 71.28125 107.617188 71.890625 107.515625 C 72.5 107.410156 73.089844 107.25 73.667969 107.03125 C 74.246094 106.8125 74.796875 106.539062 75.316406 106.210938 C 75.839844 105.886719 76.328125 105.507812 76.777344 105.085938 C 77.226562 104.664062 77.628906 104.199219 77.988281 103.699219 C 78.34375 103.195312 78.648438 102.664062 78.902344 102.101562 C 79.15625 101.535156 79.351562 100.953125 79.488281 100.351562 C 79.628906 99.753906 79.707031 99.144531 79.722656 98.527344 C 79.742188 97.910156 79.699219 97.296875 79.597656 96.6875 C 79.496094 96.082031 79.335938 95.488281 79.117188 94.910156 C 78.894531 94.335938 78.625 93.785156 78.296875 93.261719 C 77.96875 92.738281 77.59375 92.253906 77.171875 91.804688 C 76.746094 91.355469 76.285156 90.953125 75.78125 90.59375 C 75.28125 90.238281 74.746094 89.929688 74.183594 89.679688 C 73.621094 89.425781 73.039062 89.230469 72.4375 89.089844 C 71.839844 88.953125 71.230469 88.875 70.613281 88.855469 C 69.996094 88.835938 69.382812 88.878906 68.773438 88.980469 Z M 71.125 102.976562 C 70.816406 103.03125 70.503906 103.050781 70.1875 103.042969 C 69.875 103.03125 69.5625 102.992188 69.257812 102.921875 C 68.949219 102.851562 68.652344 102.75 68.363281 102.621094 C 68.078125 102.492188 67.804688 102.335938 67.550781 102.15625 C 67.292969 101.972656 67.054688 101.765625 66.839844 101.539062 C 66.625 101.308594 66.433594 101.058594 66.265625 100.792969 C 66.097656 100.527344 65.960938 100.246094 65.847656 99.949219 C 65.734375 99.65625 65.652344 99.355469 65.601562 99.042969 C 65.550781 98.734375 65.527344 98.421875 65.539062 98.105469 C 65.546875 97.789062 65.585938 97.480469 65.65625 97.171875 C 65.726562 96.867188 65.828125 96.570312 65.957031 96.28125 C 66.085938 95.996094 66.242188 95.722656 66.425781 95.464844 C 66.605469 95.210938 66.8125 94.972656 67.042969 94.757812 C 67.269531 94.542969 67.519531 94.347656 67.785156 94.183594 C 68.054688 94.015625 68.332031 93.875 68.628906 93.765625 C 68.921875 93.652344 69.226562 93.570312 69.535156 93.519531 C 69.847656 93.464844 70.160156 93.445312 70.472656 93.453125 C 70.789062 93.460938 71.097656 93.503906 71.40625 93.574219 C 71.714844 93.644531 72.011719 93.742188 72.296875 93.871094 C 72.585938 94 72.855469 94.15625 73.113281 94.339844 C 73.371094 94.523438 73.605469 94.726562 73.820312 94.957031 C 74.039062 95.1875 74.230469 95.433594 74.398438 95.703125 C 74.5625 95.96875 74.703125 96.25 74.816406 96.542969 C 74.925781 96.835938 75.007812 97.140625 75.0625 97.449219 C 75.113281 97.761719 75.136719 98.074219 75.125 98.390625 C 75.117188 98.703125 75.074219 99.015625 75.003906 99.320312 C 74.933594 99.628906 74.835938 99.925781 74.707031 100.210938 C 74.578125 100.5 74.421875 100.773438 74.238281 101.027344 C 74.054688 101.285156 73.847656 101.523438 73.621094 101.738281 C 73.390625 101.953125 73.144531 102.144531 72.875 102.3125 C 72.609375 102.480469 72.328125 102.621094 72.035156 102.730469 C 71.738281 102.84375 71.4375 102.925781 71.125 102.976562 Z M 71.125 102.976562 " fill-opacity="1" fill-rule="evenodd"/></g></g></g><g clip-path="url(#4291ba3e5a)"><g clip-path="url(#9dfc1aebac)"><g transform="matrix(1, 0, 0, 1, 74, 39)"><g clip-path="url(#16fcea0ca4)"><g clip-path="url(#d2bf562c6b)"><g clip-path="url(#61af1f094f)"><path fill="#130170" d="M 0.480469 0.472656 L 17.5625 0.472656 L 17.5625 17.554688 L 0.480469 17.554688 Z M 0.480469 0.472656 " fill-opacity="1" fill-rule="nonzero"/></g></g></g></g></g></g><g transform="matrix(1, 0, 0, 1, 8, 34)"><g clip-path="url(#fef25ab379)"><g clip-path="url(#065579fb5d)"><g fill="#130170" fill-opacity="1"><g transform="translate(0.226603, 12.133236)"><g><path d="M 0.65625 0 L 0.65625 -8.703125 L 6.796875 -8.703125 L 6.796875 -7 L 2.71875 -7 L 2.71875 -5.21875 L 6.46875 -5.21875 L 6.46875 -3.5625 L 2.71875 -3.5625 L 2.71875 -1.703125 L 6.796875 -1.703125 L 6.796875 0 Z M 0.65625 0 "/></g></g><g transform="translate(7.544517, 12.133236)"><g><path d="M 0.65625 0 L 0.65625 -6.453125 L 2.625 -6.453125 L 2.625 -5.28125 L 2.671875 -5.28125 C 2.796875 -5.707031 2.988281 -6.019531 3.25 -6.21875 C 3.507812 -6.414062 3.828125 -6.515625 4.203125 -6.515625 C 4.296875 -6.515625 4.390625 -6.507812 4.484375 -6.5 C 4.585938 -6.5 4.6875 -6.488281 4.78125 -6.46875 L 4.78125 -4.71875 C 4.6875 -4.738281 4.554688 -4.753906 4.390625 -4.765625 C 4.234375 -4.785156 4.09375 -4.796875 3.96875 -4.796875 C 3.71875 -4.796875 3.492188 -4.738281 3.296875 -4.625 C 3.109375 -4.519531 2.957031 -4.367188 2.84375 -4.171875 C 2.738281 -3.972656 2.6875 -3.742188 2.6875 -3.484375 L 2.6875 0 Z M 0.65625 0 "/></g></g></g></g><g fill="#130170" fill-opacity="1"><g transform="translate(12.234289, 12.133236)"><g><path d="M 3.671875 2.578125 C 3.078125 2.578125 2.566406 2.5 2.140625 2.34375 C 1.722656 2.1875 1.382812 1.972656 1.125 1.703125 C 0.875 1.441406 0.710938 1.132812 0.640625 0.78125 L 2.4375 0.5 C 2.476562 0.613281 2.550781 0.71875 2.65625 0.8125 C 2.757812 0.914062 2.894531 1 3.0625 1.0625 C 3.226562 1.125 3.425781 1.15625 3.65625 1.15625 C 4.0625 1.15625 4.375 1.054688 4.59375 0.859375 C 4.8125 0.671875 4.921875 0.378906 4.921875 -0.015625 L 4.921875 -1.125 L 4.796875 -1.125 C 4.710938 -0.914062 4.59375 -0.734375 4.4375 -0.578125 C 4.28125 -0.421875 4.082031 -0.296875 3.84375 -0.203125 C 3.613281 -0.117188 3.335938 -0.078125 3.015625 -0.078125 C 2.523438 -0.078125 2.082031 -0.191406 1.6875 -0.421875 C 1.289062 -0.660156 0.972656 -1.015625 0.734375 -1.484375 C 0.503906 -1.953125 0.390625 -2.539062 0.390625 -3.25 C 0.390625 -3.976562 0.507812 -4.585938 0.75 -5.078125 C 0.988281 -5.566406 1.304688 -5.929688 1.703125 -6.171875 C 2.109375 -6.421875 2.546875 -6.546875 3.015625 -6.546875 C 3.347656 -6.546875 3.632812 -6.488281 3.875 -6.375 C 4.113281 -6.269531 4.316406 -6.128906 4.484375 -5.953125 C 4.648438 -5.773438 4.78125 -5.585938 4.875 -5.390625 L 4.921875 -5.390625 L 4.921875 -6.453125 L 6.921875 -6.453125 L 6.921875 -0.1875 C 6.921875 0.425781 6.785156 0.9375 6.515625 1.34375 C 6.242188 1.75 5.863281 2.054688 5.375 2.265625 C 4.882812 2.472656 4.316406 2.578125 3.671875 2.578125 Z M 3.6875 -1.59375 C 3.945312 -1.59375 4.171875 -1.65625 4.359375 -1.78125 C 4.546875 -1.914062 4.6875 -2.109375 4.78125 -2.359375 C 4.882812 -2.609375 4.9375 -2.90625 4.9375 -3.25 C 4.9375 -3.601562 4.882812 -3.90625 4.78125 -4.15625 C 4.6875 -4.414062 4.546875 -4.613281 4.359375 -4.75 C 4.171875 -4.894531 3.945312 -4.96875 3.6875 -4.96875 C 3.4375 -4.96875 3.21875 -4.894531 3.03125 -4.75 C 2.851562 -4.601562 2.71875 -4.398438 2.625 -4.140625 C 2.53125 -3.890625 2.484375 -3.59375 2.484375 -3.25 C 2.484375 -2.90625 2.53125 -2.609375 2.625 -2.359375 C 2.71875 -2.109375 2.851562 -1.914062 3.03125 -1.78125 C 3.21875 -1.65625 3.4375 -1.59375 3.6875 -1.59375 Z M 3.6875 -1.59375 "/></g></g><g transform="translate(19.803336, 12.133236)"><g><path d="M 3.671875 0.125 C 3.003906 0.125 2.421875 -0.0078125 1.921875 -0.28125 C 1.429688 -0.5625 1.050781 -0.953125 0.78125 -1.453125 C 0.519531 -1.953125 0.390625 -2.535156 0.390625 -3.203125 C 0.390625 -3.867188 0.519531 -4.453125 0.78125 -4.953125 C 1.050781 -5.453125 1.429688 -5.84375 1.921875 -6.125 C 2.421875 -6.40625 3.003906 -6.546875 3.671875 -6.546875 C 4.347656 -6.546875 4.925781 -6.40625 5.40625 -6.125 C 5.894531 -5.84375 6.269531 -5.453125 6.53125 -4.953125 C 6.800781 -4.453125 6.9375 -3.867188 6.9375 -3.203125 C 6.9375 -2.535156 6.800781 -1.953125 6.53125 -1.453125 C 6.269531 -0.953125 5.894531 -0.5625 5.40625 -0.28125 C 4.925781 -0.0078125 4.347656 0.125 3.671875 0.125 Z M 3.671875 -1.4375 C 3.929688 -1.4375 4.148438 -1.507812 4.328125 -1.65625 C 4.503906 -1.800781 4.640625 -2.003906 4.734375 -2.265625 C 4.828125 -2.535156 4.875 -2.851562 4.875 -3.21875 C 4.875 -3.570312 4.828125 -3.878906 4.734375 -4.140625 C 4.640625 -4.410156 4.503906 -4.617188 4.328125 -4.765625 C 4.148438 -4.910156 3.929688 -4.984375 3.671875 -4.984375 C 3.421875 -4.984375 3.203125 -4.910156 3.015625 -4.765625 C 2.835938 -4.617188 2.703125 -4.410156 2.609375 -4.140625 C 2.515625 -3.878906 2.46875 -3.570312 2.46875 -3.21875 C 2.46875 -2.851562 2.515625 -2.535156 2.609375 -2.265625 C 2.703125 -2.003906 2.835938 -1.800781 3.015625 -1.65625 C 3.203125 -1.507812 3.421875 -1.4375 3.671875 -1.4375 Z M 3.671875 -1.4375 "/></g></g></g><g fill="#60941a" fill-opacity="1"><g transform="translate(26.753496, 12.133236)"><g><path d="M 0.21875 0 L 3.140625 -8.703125 L 5.90625 -8.703125 L 8.90625 0 L 6.578125 0 L 5.375 -3.8125 C 5.1875 -4.445312 5 -5.113281 4.8125 -5.8125 C 4.632812 -6.507812 4.453125 -7.242188 4.265625 -8.015625 L 4.75 -8.015625 C 4.570312 -7.242188 4.394531 -6.503906 4.21875 -5.796875 C 4.050781 -5.097656 3.875 -4.4375 3.6875 -3.8125 L 2.515625 0 Z M 2.203125 -1.8125 L 2.203125 -3.40625 L 6.90625 -3.40625 L 6.90625 -1.8125 Z M 2.203125 -1.8125 "/></g></g></g><g fill="#130170" fill-opacity="1"><g transform="translate(35.876266, 12.133236)"><g><path d="M 2.875 0.09375 C 2.425781 0.09375 2.035156 -0.00390625 1.703125 -0.203125 C 1.367188 -0.410156 1.109375 -0.695312 0.921875 -1.0625 C 0.742188 -1.425781 0.65625 -1.859375 0.65625 -2.359375 L 0.65625 -6.453125 L 2.6875 -6.453125 L 2.6875 -2.765625 C 2.6875 -2.390625 2.773438 -2.097656 2.953125 -1.890625 C 3.140625 -1.691406 3.398438 -1.59375 3.734375 -1.59375 C 3.953125 -1.59375 4.144531 -1.640625 4.3125 -1.734375 C 4.476562 -1.828125 4.601562 -1.960938 4.6875 -2.140625 C 4.78125 -2.328125 4.828125 -2.550781 4.828125 -2.8125 L 4.828125 -6.453125 L 6.859375 -6.453125 L 6.859375 0 L 4.9375 0 L 4.90625 -1.640625 L 5.03125 -1.640625 C 4.863281 -1.117188 4.609375 -0.695312 4.265625 -0.375 C 3.921875 -0.0625 3.457031 0.09375 2.875 0.09375 Z M 2.875 0.09375 "/></g></g><g transform="translate(43.38691, 12.133236)"><g><path d="M 0.65625 0 L 0.65625 -6.453125 L 2.625 -6.453125 L 2.625 -5.28125 L 2.671875 -5.28125 C 2.796875 -5.707031 2.988281 -6.019531 3.25 -6.21875 C 3.507812 -6.414062 3.828125 -6.515625 4.203125 -6.515625 C 4.296875 -6.515625 4.390625 -6.507812 4.484375 -6.5 C 4.585938 -6.5 4.6875 -6.488281 4.78125 -6.46875 L 4.78125 -4.71875 C 4.6875 -4.738281 4.554688 -4.753906 4.390625 -4.765625 C 4.234375 -4.785156 4.09375 -4.796875 3.96875 -4.796875 C 3.71875 -4.796875 3.492188 -4.738281 3.296875 -4.625 C 3.109375 -4.519531 2.957031 -4.367188 2.84375 -4.171875 C 2.738281 -3.972656 2.6875 -3.742188 2.6875 -3.484375 L 2.6875 0 Z M 0.65625 0 "/></g></g></g><g fill="#130170" fill-opacity="1"><g transform="translate(48.152606, 12.133236)"><g><path d="M 2.484375 0.109375 C 2.066406 0.109375 1.695312 0.0390625 1.375 -0.09375 C 1.050781 -0.238281 0.796875 -0.453125 0.609375 -0.734375 C 0.429688 -1.015625 0.34375 -1.367188 0.34375 -1.796875 C 0.34375 -2.148438 0.40625 -2.445312 0.53125 -2.6875 C 0.65625 -2.9375 0.828125 -3.140625 1.046875 -3.296875 C 1.273438 -3.453125 1.535156 -3.570312 1.828125 -3.65625 C 2.117188 -3.738281 2.429688 -3.789062 2.765625 -3.8125 C 3.140625 -3.84375 3.4375 -3.875 3.65625 -3.90625 C 3.882812 -3.945312 4.050781 -4.003906 4.15625 -4.078125 C 4.257812 -4.148438 4.3125 -4.253906 4.3125 -4.390625 L 4.3125 -4.40625 C 4.3125 -4.550781 4.273438 -4.675781 4.203125 -4.78125 C 4.128906 -4.882812 4.023438 -4.960938 3.890625 -5.015625 C 3.765625 -5.078125 3.609375 -5.109375 3.421875 -5.109375 C 3.234375 -5.109375 3.066406 -5.078125 2.921875 -5.015625 C 2.785156 -4.960938 2.671875 -4.882812 2.578125 -4.78125 C 2.484375 -4.675781 2.421875 -4.554688 2.390625 -4.421875 L 0.546875 -4.609375 C 0.617188 -5.003906 0.773438 -5.34375 1.015625 -5.625 C 1.265625 -5.914062 1.59375 -6.140625 2 -6.296875 C 2.414062 -6.460938 2.898438 -6.546875 3.453125 -6.546875 C 3.867188 -6.546875 4.25 -6.5 4.59375 -6.40625 C 4.945312 -6.3125 5.253906 -6.171875 5.515625 -5.984375 C 5.773438 -5.796875 5.972656 -5.566406 6.109375 -5.296875 C 6.253906 -5.023438 6.328125 -4.71875 6.328125 -4.375 L 6.328125 0 L 4.40625 0 L 4.40625 -0.90625 L 4.359375 -0.90625 C 4.242188 -0.6875 4.097656 -0.5 3.921875 -0.34375 C 3.742188 -0.1875 3.535156 -0.0703125 3.296875 0 C 3.054688 0.0703125 2.785156 0.109375 2.484375 0.109375 Z M 3.109375 -1.234375 C 3.335938 -1.234375 3.539062 -1.273438 3.71875 -1.359375 C 3.90625 -1.453125 4.050781 -1.578125 4.15625 -1.734375 C 4.269531 -1.898438 4.328125 -2.085938 4.328125 -2.296875 L 4.328125 -2.921875 C 4.273438 -2.890625 4.203125 -2.859375 4.109375 -2.828125 C 4.023438 -2.804688 3.929688 -2.78125 3.828125 -2.75 C 3.734375 -2.726562 3.628906 -2.707031 3.515625 -2.6875 C 3.410156 -2.675781 3.304688 -2.660156 3.203125 -2.640625 C 3.015625 -2.617188 2.847656 -2.570312 2.703125 -2.5 C 2.566406 -2.4375 2.457031 -2.351562 2.375 -2.25 C 2.300781 -2.15625 2.265625 -2.035156 2.265625 -1.890625 C 2.265625 -1.742188 2.300781 -1.617188 2.375 -1.515625 C 2.445312 -1.421875 2.546875 -1.347656 2.671875 -1.296875 C 2.796875 -1.253906 2.941406 -1.234375 3.109375 -1.234375 Z M 3.109375 -1.234375 "/></g></g></g></g></g></g></g></g></svg>